<?xml version="1.0" encoding="utf-8"?>
<!-- Generator: Adobe Illustrator 25.2.1, SVG Export Plug-In . SVG Version: 6.00 Build 0)  -->
<svg version="1.1" id="Camada_1" xmlns="http://www.w3.org/2000/svg" xmlns:xlink="http://www.w3.org/1999/xlink" x="0px" y="0px"
	 viewBox="0 0 122 79.7" style="enable-background:new 0 0 122 79.7;" xml:space="preserve">
<style type="text/css">
	.st0{fill:#D2DEF6;}
</style>
<g>
	<path class="st0" d="M92.6,22.1c0.1-2.9,1.3-4,5.5-4h22.8V9.9H99.6c-10.1,0-15.8,4.3-15.8,12.5c0,16,29.2,12.7,29.2,21.2
		c0,2.9-1.5,4.4-5.5,4.4H77.6c3-3.7,4.9-8.5,4.9-13.9C82.4,20.5,73.6,9,58.6,9C45,9,35.2,19.2,35.2,34.4v3.8H24.9
		c-8,0-15.9-5.2-15.9-15c0-9.8,7.9-15,15.9-15h6.6V0h-8.1C12.6,0,0.2,8.3,0.2,23.1c0,14.8,12.4,23.1,23.2,23.1h11.8v33.6h8.5V46.3
		h16.1v-8.1H43.7V36c0-12.7,6.7-18.9,14.8-18.9c9.1,0,15.4,6.6,15.4,16.1c0,8.1-4.4,13.4-11.3,15H51.8v8.1h55.6
		c8.2,0,14.4-4.2,14.4-12.9C121.8,26.7,92.5,30.1,92.6,22.1z"/>
	<g id="Camada_86_1_">
		<g>
			<path class="st0" d="M58.8,68.3c-0.5,0.2-1.4,0.4-2.5,0.4c-2.7,0-4.7-1.5-4.7-4.3c0-2.7,2-4.5,5-4.5c1.2,0,1.9,0.2,2.3,0.4
				l-0.3,0.9c-0.5-0.2-1.1-0.4-1.9-0.4c-2.2,0-3.7,1.3-3.7,3.5c0,2.1,1.3,3.4,3.7,3.4c0.8,0,1.5-0.1,2-0.4L58.8,68.3z"/>
			<path class="st0" d="M60.8,65.7c0,1.5,1.1,2.1,2.4,2.1c0.9,0,1.4-0.1,1.9-0.3l0.2,0.8c-0.4,0.2-1.2,0.4-2.3,0.4
				c-2.1,0-3.4-1.2-3.4-3.1c0-1.9,1.2-3.3,3.2-3.3c2.2,0,2.8,1.8,2.8,2.9c0,0.2,0,0.4,0,0.5H60.8z M64.5,64.9c0-0.7-0.3-1.8-1.7-1.8
				c-1.3,0-1.8,1-1.9,1.8H64.5z"/>
			<path class="st0" d="M67.2,64.1c0-0.6,0-1.2-0.1-1.7h1.1l0.1,1h0c0.3-0.6,1.1-1.2,2.3-1.2c0.9,0,2.4,0.5,2.4,2.6v3.7h-1.2V65
				c0-1-0.4-1.8-1.6-1.8c-0.8,0-1.5,0.5-1.7,1.1c-0.1,0.1-0.1,0.3-0.1,0.5v3.7h-1.3L67.2,64.1L67.2,64.1z"/>
			<path class="st0" d="M76.6,60.6v1.8h1.8v0.8h-1.8v3.3c0,0.8,0.2,1.2,0.9,1.2c0.3,0,0.6,0,0.7-0.1l0.1,0.8
				c-0.2,0.1-0.6,0.2-1.1,0.2c-0.6,0-1-0.2-1.3-0.5c-0.4-0.3-0.5-0.9-0.5-1.6v-3.4h-1.1v-0.8h1.1v-1.5L76.6,60.6z"/>
			<path class="st0" d="M79.7,64.3c0-0.7,0-1.3-0.1-1.9h1.1l0,1.2h0.1c0.3-0.8,1.1-1.3,1.9-1.3c0.1,0,0.2,0,0.4,0v1.1
				c-0.1,0-0.3,0-0.4,0c-0.9,0-1.5,0.6-1.7,1.4c0,0.1-0.1,0.3-0.1,0.5v3.3h-1.2L79.7,64.3L79.7,64.3z"/>
			<path class="st0" d="M90.5,65.4c0,2.3-1.8,3.3-3.4,3.3c-1.9,0-3.3-1.2-3.3-3.2c0-2.1,1.5-3.3,3.4-3.3
				C89.1,62.3,90.5,63.6,90.5,65.4z M85,65.5c0,1.3,0.9,2.4,2.1,2.4c1.2,0,2.1-1,2.1-2.4c0-1-0.6-2.4-2.1-2.4S85,64.3,85,65.5z"/>
			<path class="st0" d="M52.1,71.3c0.6-0.1,1.4-0.2,2.4-0.2c1.2,0,2.1,0.3,2.7,0.7c0.5,0.4,0.8,1,0.8,1.8c0,0.8-0.3,1.4-0.7,1.8
				c-0.6,0.6-1.7,0.9-2.9,0.9c-0.4,0-0.7,0-1-0.1v3.4h-1.2L52.1,71.3L52.1,71.3z M53.3,75.4c0.3,0.1,0.6,0.1,1,0.1
				c1.5,0,2.4-0.7,2.4-1.8c0-1.1-0.9-1.7-2.3-1.7c-0.5,0-1,0-1.2,0.1C53.3,72.1,53.3,75.4,53.3,75.4z"/>
			<path class="st0" d="M63,79.7l-0.1-0.8h0c-0.4,0.5-1.1,0.9-2.1,0.9c-1.4,0-2.1-0.9-2.1-1.8c0-1.5,1.5-2.3,4.1-2.3v-0.1
				c0-0.5-0.2-1.4-1.6-1.4c-0.6,0-1.3,0.2-1.8,0.5L59.2,74c0.6-0.3,1.4-0.5,2.3-0.5c2.1,0,2.6,1.3,2.6,2.5v2.3c0,0.5,0,1.1,0.1,1.5
				L63,79.7L63,79.7z M62.8,76.6c-1.4,0-2.9,0.2-2.9,1.4c0,0.7,0.5,1.1,1.2,1.1c0.9,0,1.5-0.5,1.7-1c0-0.1,0.1-0.2,0.1-0.4V76.6z"/>
			<path class="st0" d="M71.8,78c0,0.6,0,1.2,0.1,1.7h-1.1l-0.1-1h0c-0.3,0.5-1.1,1.1-2.3,1.1c-1.1,0-2.4-0.5-2.4-2.7v-3.6h1.2V77
				c0,1.2,0.4,2,1.5,2c0.8,0,1.4-0.5,1.6-1c0.1-0.2,0.1-0.4,0.1-0.6v-3.8h1.2L71.8,78L71.8,78z"/>
			<path class="st0" d="M73.9,70.7h1.3v9h-1.3V70.7z"/>
			<path class="st0" d="M81,79.7l-0.1-0.8h0c-0.4,0.5-1.1,0.9-2.1,0.9c-1.4,0-2.1-0.9-2.1-1.8c0-1.5,1.5-2.3,4.1-2.3v-0.1
				c0-0.5-0.2-1.4-1.6-1.4c-0.6,0-1.3,0.2-1.8,0.5L77.2,74c0.6-0.3,1.4-0.5,2.3-0.5c2.1,0,2.6,1.3,2.6,2.5v2.3c0,0.5,0,1.1,0.1,1.5
				L81,79.7L81,79.7z M80.9,76.6c-1.4,0-2.9,0.2-2.9,1.4c0,0.7,0.5,1.1,1.2,1.1c0.9,0,1.5-0.5,1.7-1c0-0.1,0.1-0.2,0.1-0.4V76.6z"/>
			<path class="st0" d="M87,78.4c0.6,0.3,1.4,0.6,2.2,0.6c1.3,0,2-0.6,2-1.5c0-0.8-0.5-1.3-1.8-1.7c-1.6-0.5-2.5-1.2-2.5-2.4
				c0-1.3,1.2-2.3,3.1-2.3c1,0,1.7,0.2,2.1,0.4l-0.3,0.9c-0.3-0.1-0.9-0.4-1.8-0.4c-1.3,0-1.8,0.7-1.8,1.3c0,0.8,0.6,1.2,1.9,1.7
				c1.6,0.6,2.4,1.3,2.4,2.5c0,1.3-1.1,2.5-3.4,2.5c-0.9,0-1.9-0.2-2.4-0.5L87,78.4z"/>
			<path class="st0" d="M100.4,76.6c0,2.3-1.8,3.3-3.4,3.3c-1.9,0-3.3-1.2-3.3-3.2c0-2.1,1.5-3.3,3.4-3.3
				C99.1,73.4,100.4,74.7,100.4,76.6z M94.9,76.7c0,1.3,0.9,2.4,2.1,2.4c1.2,0,2.1-1,2.1-2.4c0-1-0.6-2.4-2.1-2.4
				S94.9,75.5,94.9,76.7z"/>
			<path class="st0" d="M107.7,78c0,0.6,0,1.2,0.1,1.7h-1.1l-0.1-1h0c-0.3,0.5-1.1,1.1-2.3,1.1c-1.1,0-2.4-0.5-2.4-2.7v-3.6h1.3V77
				c0,1.2,0.4,2,1.5,2c0.8,0,1.4-0.5,1.6-1c0.1-0.2,0.1-0.4,0.1-0.6v-3.8h1.2L107.7,78L107.7,78z"/>
			<path class="st0" d="M109,79.1l3.1-3.6c0.3-0.3,0.6-0.6,0.9-1v0h-3.7v-0.9h5.2l0,0.7l-3.1,3.6c-0.3,0.3-0.6,0.7-0.9,1v0h4v0.9
				H109C109,79.7,109,79.1,109,79.1z"/>
			<path class="st0" d="M119.7,79.7l-0.1-0.8h0c-0.4,0.5-1.1,0.9-2.1,0.9c-1.4,0-2.1-0.9-2.1-1.8c0-1.5,1.5-2.3,4.1-2.3v-0.1
				c0-0.5-0.2-1.4-1.6-1.4c-0.6,0-1.3,0.2-1.8,0.5l-0.3-0.7c0.6-0.3,1.4-0.5,2.3-0.5c2.1,0,2.6,1.3,2.6,2.5v2.3c0,0.5,0,1.1,0.1,1.5
				L119.7,79.7L119.7,79.7z M119.5,76.6c-1.4,0-2.9,0.2-2.9,1.4c0,0.7,0.5,1.1,1.2,1.1c0.9,0,1.5-0.5,1.7-1c0-0.1,0.1-0.2,0.1-0.4
				C119.5,77.7,119.5,76.6,119.5,76.6z"/>
		</g>
	</g>
</g>
</svg>
