<?xml version="1.0" encoding="utf-8"?>
<!-- Generator: Adobe Illustrator 25.2.1, SVG Export Plug-In . SVG Version: 6.00 Build 0)  -->
<svg version="1.1" id="Camada_1" xmlns="http://www.w3.org/2000/svg" xmlns:xlink="http://www.w3.org/1999/xlink" x="0px" y="0px"
	 viewBox="0 0 16 16" style="enable-background:new 0 0 16 16;" xml:space="preserve">
<style type="text/css">
	.st0{fill:#5E86E2;}
	.st1{fill:#4B4B4B;}
</style>
<g>
	<circle class="st0" cx="6.9" cy="6.9" r="6.9"/>
</g>
<path class="st1" d="M4.9,6.6C4.9,6,5.1,5.5,5.3,5c0.2-0.4,0.5-0.7,0.8-1c0.4-0.3,0.8-0.6,1.2-0.7C7.9,3.1,8.4,3,8.9,3
	c0.6,0,1.3,0.2,1.8,0.6c1,0.6,1.6,1.6,1.8,2.7c0.1,0.7,0,1.5-0.3,2.1c-0.2,0.5-0.5,0.9-1,1.3c-0.6,0.5-1.3,0.8-2.1,1
	c-0.8,0.1-1.6,0-2.3-0.4c-0.1,0-0.2-0.1-0.3-0.2c-0.2-0.1-0.3-0.1-0.5,0c-0.2,0.1-0.2,0.2-0.2,0.4c0,0.6,0,1.3,0,1.9c0,1,0,2,0,2.9
	c0,0.3-0.2,0.5-0.5,0.6c0,0-0.1,0-0.2,0c-0.2,0-0.4-0.2-0.4-0.4c0-0.2,0-0.4,0-0.5c0-0.9,0-1.9,0-2.8c0-1.1,0-4.4,0-4.4
	c0-0.3,0-0.7,0-1C4.8,6.8,4.8,6.6,4.9,6.6z M11.6,6.9c0-1.6-1.3-2.8-2.8-2.8C7.2,4,5.9,5.3,5.9,6.9c0,1.6,1.3,2.8,2.8,2.8
	C10.3,9.7,11.6,8.4,11.6,6.9z"/>
<path d="M3.8,5.3"/>
</svg>
