<?xml version="1.0" encoding="utf-8"?>
<!-- Generator: Adobe Illustrator 25.2.1, SVG Export Plug-In . SVG Version: 6.00 Build 0)  -->
<svg version="1.1" id="Camada_1" xmlns="http://www.w3.org/2000/svg" xmlns:xlink="http://www.w3.org/1999/xlink" x="0px" y="0px"
	 viewBox="0 0 740.1 574.3" style="enable-background:new 0 0 740.1 574.3;" xml:space="preserve">
<style type="text/css">
	.st0{fill:#4A4A4A;}
	.st1{fill:#E6E6E6;}
	.st2{fill:#3F3D56;}
	.st3{fill:#FFB6B6;}
	.st4{fill:#2F2E41;}
	.st5{fill:#4586E5;}
	.st6{fill:#FFFFFF;}
	.st7{fill:#CCCCCC;}
	.st8{fill:#193769;}
	.st9{fill:#F2F2F2;}
</style>
<path class="st0" d="M717.4,0H69.8C57.3,0,47.1,10.2,47.1,22.7v394.6c0,12.5,10.2,22.7,22.7,22.7h647.6c12.5,0,22.7-10.2,22.7-22.7
	V22.7C740.1,10.2,729.9,0,717.4,0z M738.1,417.3c0,11.4-9.3,20.7-20.7,20.7l0,0H69.8c-11.4,0-20.7-9.3-20.7-20.7l0,0V157.7
	C49.1,71.7,118.8,2,204.8,2c0,0,0,0,0,0h512.6c11.4,0,20.7,9.3,20.7,20.7l0,0V417.3z"/>
<path class="st1" d="M678.9,335.7H382.3c-6.4,0-11.6-5.2-11.6-11.6v-96.3c0-6.4,5.2-11.6,11.6-11.6h296.6c6.4,0,11.6,5.2,11.6,11.6
	v96.3C690.5,330.5,685.3,335.7,678.9,335.7z"/>
<ellipse class="st2" cx="216.4" cy="54.9" rx="8.6" ry="8.8"/>
<ellipse class="st2" cx="186.6" cy="54.9" rx="8.6" ry="8.8"/>
<ellipse class="st2" cx="156.7" cy="54.9" rx="8.6" ry="8.8"/>
<path class="st1" d="M498.8,145.1H377.9c-4.2,0-7.5-3.4-7.5-7.5c0-4.2,3.4-7.5,7.5-7.5h120.9c4.2,0,7.5,3.4,7.5,7.5
	C506.3,141.7,502.9,145.1,498.8,145.1z"/>
<path class="st1" d="M593.1,170.6H377.9c-4.2,0-7.5-3.4-7.5-7.5c0-4.2,3.4-7.5,7.5-7.5h215.2c4.2,0,7.5,3.4,7.5,7.5
	C600.6,167.2,597.3,170.6,593.1,170.6z"/>
<polygon class="st3" points="162.3,563.1 172.4,563.1 177.2,524.2 162.3,524.2 "/>
<path class="st4" d="M162,573.6l31,0v-0.4c0-6.7-5.4-12.1-12.1-12.1h0l-5.7-4.3l-10.6,4.3l-2.7,0L162,573.6z"/>
<polygon class="st3" points="104,563.1 114.1,563.1 118.9,524.2 104,524.2 "/>
<path class="st4" d="M103.6,573.6l31,0v-0.4c0-6.7-5.4-12.1-12.1-12.1h0l-5.7-4.3l-10.6,4.3l-2.7,0L103.6,573.6z"/>
<path class="st3" d="M230.3,304.7l-34.4-32.2l9.3-15.6l33.9,38.8c5.4-0.5,10.2,3.4,10.8,8.8c0.5,5.4-3.4,10.2-8.8,10.8
	c-5.4,0.5-10.2-3.4-10.8-8.8C230.2,305.8,230.2,305.3,230.3,304.7L230.3,304.7z"/>
<path class="st4" d="M94.1,351.6c0,0-4.3,38.4,5,74.7l-3.5,17.5l7.7,100.5h18.8l13.2-165.7L160,544.4h19.8l-2.4-91l8.6-87.5
	l-3.6-19.9L94.1,351.6z"/>
<path class="st5" d="M146.1,202h-42L97,220l1.7,142c0,0,83.2,0,88.9-5.7l-17.8-61.9l-6.4-78.9L146.1,202z"/>
<polygon class="st4" points="169.2,214.7 199,246.7 209.7,253.8 212.5,263.1 200.4,283.7 186.9,278.7 182.7,263.1 157.6,242.6 
	154.9,209.7 "/>
<polygon class="st4" points="142.2,203 147.1,224 153.9,299 163.1,355.9 189.8,355.9 173.8,294 167.4,214.4 146,201.6 "/>
<polygon class="st4" points="107.9,203 115.5,227.2 127.5,306.8 109.1,363.7 91.1,364 86.4,346.3 97,301.1 82.7,214.4 104.1,201.6 
	"/>
<circle class="st3" cx="123.5" cy="169.4" r="25.5"/>
<path class="st4" d="M108.8,182c0,0-1.2,1.9,1.1,9.7l-10.8-8.7l-1.2-9.5c0,0-5.5-19.7,13.4-29.1c0,0,16.5-8.7,32.3,3.9
	c0,0,6.3,0.8,5.5,1.6s-4.7,3.1-0.8,2.4s6.3-4.7,6.3-2.4s-7.1,7.9-7.1,7.9s2.8,7.5-16.1-2.8l0,0c-2,5.1-5.9,9.1-10.9,11.4l0.6,0.6
	l0,0l-4.7,10.1C116.4,177.1,111.5,170.6,108.8,182z"/>
<path class="st6" d="M110.8,380.7l85.5-192.9c1.9-4.2,6.7-6,10.9-4.2l62.6,27.8c4.2,1.9,6,6.7,4.2,10.9l-85.5,192.9
	c-1.9,4.2-6.7,6-10.9,4.2L115,391.6C110.8,389.7,108.9,384.9,110.8,380.7z"/>
<path class="st2" d="M110.8,380.7l85.5-192.9c1.9-4.2,6.7-6,10.9-4.2l62.6,27.8c4.2,1.9,6,6.7,4.2,10.9l-85.5,192.9
	c-1.9,4.2-6.7,6-10.9,4.2L115,391.6C110.8,389.7,108.9,384.9,110.8,380.7z M272.7,221.7c1.5-3.4,0-7.5-3.5-9L206.6,185
	c-3.4-1.5-7.5,0-9,3.5l-85.5,192.9c-1.5,3.4,0,7.5,3.5,9l62.6,27.8c3.4,1.5,7.5,0,9-3.5L272.7,221.7z"/>
<circle class="st7" cx="204.3" cy="269.8" r="32"/>
<circle class="st8" cx="188.7" cy="304.9" r="32"/>
<path class="st5" d="M160.2,369.3c-16.2-7.2-23.4-26.1-16.3-42.2c7.2-16.2,26.1-23.4,42.2-16.3l0,0c16.2,7.2,33.9,43.9,16.3,42.2
	C182.2,351.1,176.3,376.5,160.2,369.3z"/>
<path class="st3" d="M117.1,350.3l-25-62.3l20,4l16.7,53.4c5.2,1.6,8.1,7.1,6.5,12.3s-7.1,8.1-12.3,6.5c-5.2-1.6-8.1-7.1-6.5-12.3
	C116.6,351.4,116.8,350.8,117.1,350.3L117.1,350.3z"/>
<path class="st4" d="M76.6,229.6c-1.5,16.1,1.6,30.2,7,43.2l0.7,11.6l5.6,7.9l23.7,3.1l4.4-13.7l-9.7-13l-0.8-32.4L83,214.1
	L76.6,229.6z"/>
<path class="st9" d="M54.3,557c-1.3,0.1-2.3-0.9-2.4-2.2c0-0.7,0.2-1.3,0.7-1.8l0.2-0.6c0,0,0-0.1-0.1-0.1c-1.3-3.1-4.9-4.5-8-3.2
	c-1.5,0.6-2.6,1.8-3.3,3.3c-1.8,4.4-4.2,8.9-4.8,13.5c-0.3,2.1-0.1,4.2,0.3,6.2c-4.3-9.4-6.6-19.7-6.6-30c0-2.6,0.1-5.2,0.4-7.8
	c0.2-2.1,0.6-4.2,1-6.3c2.3-11.3,7.3-22,14.5-31c3.5-1.9,6.3-4.8,8.1-8.4c0.6-1.3,1.1-2.6,1.3-4.1c-0.4,0.1-1.5-5.9-1.2-6.3
	c-0.5-0.8-1.5-1.2-2.1-2.1c-3-4-7.1-3.3-9.2,2.2c-4.6,2.3-4.6,6.1-1.8,9.8c1.8,2.3,2,5.5,3.6,8c-0.2,0.2-0.3,0.4-0.5,0.6
	c-3,3.8-5.5,7.9-7.7,12.2c0.5-4.8-0.1-9.7-1.8-14.2c-1.7-4.2-5-7.8-7.9-11.4c-2.1-2.7-6.1-3.2-8.8-1.1c-1.3,1-2.2,2.5-2.4,4.2
	c0,0.1,0,0.1,0,0.2c0.4,0.2,0.8,0.5,1.3,0.8c1.4,0.9,1.8,2.9,0.8,4.3c-0.5,0.7-1.2,1.2-2.1,1.3l-0.1,0c0.2,1.5,0.4,3.1,0.8,4.6
	c-3.7,14.3,4.3,19.5,15.7,19.8c0.3,0.1,0.5,0.3,0.7,0.4c-2.2,6.1-3.5,12.5-4,19c-0.3,3.8-0.3,7.7,0.1,11.5l0-0.1
	c-0.8-4.3-3.1-8.1-6.4-10.9c-4.9-4.1-11.9-5.6-17.3-8.8c-1.6-1.1-3.8-0.6-4.9,1.1c-0.5,0.7-0.6,1.5-0.5,2.4l0,0.1
	c0.8,0.3,1.6,0.7,2.3,1.1c0.4,0.2,0.8,0.5,1.3,0.8c1.4,0.9,1.8,2.9,0.8,4.3c-0.5,0.7-1.2,1.2-2.1,1.3l-0.1,0c0,0-0.1,0-0.1,0
	c1.4,3.2,3.3,6.2,5.6,8.8c2.3,12.5,12.3,13.7,22.9,10h0c1.2,5.1,2.9,10,5,14.7h18c0.1-0.2,0.1-0.4,0.2-0.6c-1.7,0.1-3.3,0-5-0.3
	c1.3-1.6,2.7-3.3,4-4.9c0,0,0.1-0.1,0.1-0.1c0.7-0.8,1.4-1.7,2-2.5l0,0C55.2,562,54.9,559.5,54.3,557L54.3,557z"/>
<path class="st7" d="M255.8,573.1c0,0.7-0.5,1.2-1.2,1.2c0,0,0,0,0,0H1.3c-0.7,0-1.2-0.5-1.2-1.2s0.5-1.2,1.2-1.2h253.3
	C255.3,571.9,255.8,572.5,255.8,573.1C255.8,573.1,255.8,573.1,255.8,573.1z"/>
</svg>
