<?xml version="1.0" encoding="utf-8"?>
<!-- Generator: Adobe Illustrator 25.2.1, SVG Export Plug-In . SVG Version: 6.00 Build 0)  -->
<svg version="1.1" id="Camada_1" xmlns="http://www.w3.org/2000/svg" xmlns:xlink="http://www.w3.org/1999/xlink" x="0px" y="0px"
	 viewBox="0 0 462.8 220.7" style="enable-background:new 0 0 462.8 220.7;" xml:space="preserve">
<style type="text/css">
	.st0{fill-rule:evenodd;clip-rule:evenodd;fill:#D2DEF6;}
</style>
<path class="st0" d="M133.7,13.9h18.8c0.9,0,1.7,0.8,1.7,1.7v188.2c0,1-0.8,1.7-1.7,1.7h-18.8c-1,0-1.7-0.8-1.7-1.7V15.7
	C132,14.7,132.8,13.9,133.7,13.9z M263,168.8v4.7c0,2.1-0.3,4.9-1.1,8.5c-0.6,3.5-2.5,7.1-5.5,10.6c-3,3.5-7.4,6.6-13.4,9.2
	c-6,2.5-14.2,3.8-24.8,3.8c-10.6,0-18.8-1.3-24.8-3.8c-6-2.5-10.4-5.5-13.4-9.2c-3-3.5-4.9-7.1-5.5-10.7c-0.6-3.6-1.1-6.3-1.1-8.4
	V66.4c0-1,0.8-1.7,1.7-1.7h18.8c0.9,0,1.7,0.8,1.7,1.7v100.4c0,3.3,0.5,5.7,1,7.6c0.5,1.9,1.4,3.8,2.8,5.4c1.4,1.7,3.6,3.2,6.6,4.3
	c2.8,1.1,6.8,1.7,11.7,1.7c5.1,0,9.2-0.6,12.2-1.7c3-1.1,5.2-2.5,6.8-4.1c1.6-1.6,2.7-3.3,3.2-5.2c0.5-1.9,1.1-3.5,1.1-8.1V66.4
	c0-1,0.8-1.7,1.7-1.7h18.8c0.9,0,1.7,0.8,1.7,1.7v102.4L263,168.8L263,168.8z M327,64.7h12.6c1.1,0,1.9,1.1,1.6,2.2l-4.3,16.4
	c-0.2,0.8-1,1.3-1.6,1.3h-8.8c-4.7,0-8.5,0.6-11.5,1.9c-2.8,1.3-5.2,2.7-6.8,4.4c-1.4,1.5-2.4,3.3-3,5.2c-0.5,1.9-0.6,3.6-0.6,5.2
	v102.7c0,1-0.8,1.7-1.7,1.7h-19c-1,0-1.7-0.8-1.7-1.7V96.9c0-1.9,0.3-4.7,1.1-8.4c0.6-3.6,2.5-7.1,5.5-10.7c3-3.5,7.4-6.6,13.4-9.2
	C308,65.9,316.4,64.7,327,64.7z M68.6,64.7c15.3,0,26.5,3,33.8,9c7.1,6,10.7,13.6,10.7,22.6v77.4c0,3.2-0.6,6.6-1.7,10.3
	c-1.1,3.8-3.3,7.3-6.6,10.3c-3.3,3.2-7.9,5.7-13.6,7.9c-5.7,2.1-13.3,3.2-22.4,3.2c-9.3,0-16.8-1.1-22.4-3.2s-10.3-4.7-13.6-7.9
	c-3.3-3.2-5.5-6.6-6.6-10.3c-1.1-3.8-1.7-7.3-1.7-10.3v-12.3c0-6.6,1.7-12.6,5.1-18c3.5-5.4,8.2-9.3,14.5-11.5
	c3.2-1.1,6.6-2.2,10.7-3.6c4-1.4,7.9-2.7,11.7-4.1c3.8-1.3,7-2.5,9.8-3.5c2.8-1.1,4.6-1.6,5.2-1.9c0.6-0.3,1.6-0.8,2.7-1.4
	c1.1-0.6,2.2-1.6,3.3-2.7c1.1-1.3,1.9-2.7,2.7-4.1c0.8-1.6,1.1-3.5,1.1-5.5v-4.9c0-1.7-0.3-3.5-1.1-5.4c-0.6-1.9-1.9-3.5-3.6-5.1
	c-1.7-1.6-4.1-2.8-7-3.8c-2.8-0.9-6.5-1.4-10.9-1.4c-8.7,0-14.5,1.7-17.7,5.4c-2.7,3.2-4.3,7.2-4.6,11.4c0,1-0.8,1.6-1.7,1.6h-19
	c-1,0-1.7-0.8-1.7-1.7v-4.6c0-4.4,0.8-8.5,2.5-12.3c1.6-3.8,4.3-7.3,8.1-10.1c3.6-2.8,8.2-5.2,13.9-6.8
	C53.9,65.6,60.7,64.7,68.6,64.7z M91,134.1c-0.3,1.6-1.3,3.1-2.7,4c-1.4,0.9-2.7,1.4-4,1.9c-2.7,0.9-5.5,1.9-8.5,3
	c-3,1.1-5.8,2.2-8.5,3c-3.2,1.1-6.2,2.1-8.8,3.2c-2.2,0.9-4.2,2.2-6,3.6c-1.6,1.4-3,3.2-4.3,5.4c-1.3,2.2-1.9,4.9-1.9,8.2
	c0,6.6,1.6,11.5,4.7,14.9c3.2,3.2,9,4.9,17.5,4.9c8.7,0,14.7-1.7,17.9-5.1c3.2-3.5,4.7-8.2,4.7-14.5v-32.4H91z M394.3,64.7
	c15.3,0,26.5,3,33.8,9c7.1,6,10.7,13.6,10.7,22.6v77.4c0,3.2-0.6,6.6-1.7,10.3c-1.1,3.8-3.3,7.3-6.6,10.3c-3.3,3.2-7.9,5.7-13.6,7.9
	c-5.7,2.1-13.3,3.2-22.4,3.2c-9.3,0-16.8-1.1-22.4-3.2s-10.3-4.7-13.6-7.9c-3.3-3.2-5.5-6.6-6.6-10.3c-1.1-3.8-1.7-7.3-1.7-10.3
	v-12.3c0-6.6,1.7-12.6,5.1-18c3.5-5.4,8.2-9.3,14.5-11.5c3.2-1.1,6.6-2.2,10.8-3.6c3.9-1.4,7.9-2.7,11.7-4.1c3.8-1.3,7-2.5,9.8-3.5
	c2.8-1.1,4.6-1.6,5.2-1.9c0.6-0.3,1.6-0.8,2.7-1.4c1.1-0.6,2.2-1.6,3.3-2.7c1.1-1.3,1.9-2.7,2.7-4.1c0.8-1.6,1.1-3.5,1.1-5.5v-4.9
	c0-1.7-0.3-3.5-1.1-5.4c-0.6-1.9-1.9-3.5-3.6-5.1c-1.7-1.6-4.1-2.8-6.9-3.8c-2.8-0.9-6.5-1.4-10.9-1.4c-8.7,0-14.5,1.7-17.7,5.4
	c-2.7,3.2-4.3,7.2-4.6,11.4c0,1-0.8,1.6-1.7,1.6h-19c-1,0-1.7-0.8-1.7-1.7v-4.6c0-4.4,0.8-8.5,2.5-12.3c1.6-3.8,4.3-7.3,8.1-10.1
	c3.6-2.8,8.2-5.2,13.9-6.8C379.8,65.6,386.4,64.7,394.3,64.7z M416.8,134.1c-0.3,1.6-1.3,3.1-2.7,4c-1.4,0.9-2.7,1.4-4,1.9
	c-2.7,0.9-5.5,1.9-8.5,3c-3,1.1-5.8,2.2-8.5,3c-3.2,1.1-6.2,2.1-8.8,3.2c-2.2,0.9-4.2,2.2-6,3.6c-1.6,1.4-3,3.2-4.3,5.4
	c-1.3,2.2-1.9,4.9-1.9,8.2c0,6.6,1.6,11.5,4.7,14.9c3.2,3.2,9,4.9,17.5,4.9c8.7,0,14.7-1.7,17.9-5.1c3.2-3.5,4.7-8.2,4.7-14.5v-32.4
	C416.9,134.1,416.8,134.1,416.8,134.1z"/>
</svg>
