<?xml version="1.0" encoding="utf-8"?>
<!-- Generator: Adobe Illustrator 25.2.1, SVG Export Plug-In . SVG Version: 6.00 Build 0)  -->
<svg version="1.1" id="Layer_1" xmlns="http://www.w3.org/2000/svg" xmlns:xlink="http://www.w3.org/1999/xlink" x="0px" y="0px"
	 viewBox="0 0 164.2 50.7" style="enable-background:new 0 0 164.2 50.7;" xml:space="preserve">
<style type="text/css">
	.st0{fill-rule:evenodd;clip-rule:evenodd;fill:#D2DEF6;}
	.st1{fill:#D2DEF6;}
</style>
<g>
	<g>
		<path class="st0" d="M9.3,41.5H7.2l-1.4,6c-0.2,1.1-1,1.7-2.4,1.7c-0.9,0-1.6-0.6-1.3-1.8l1.3-5.9H1.5l-1.4,6
			c-0.2,0.9-0.1,1.6,0.2,2.2c0.7,0.9,2,1.1,2.8,1.1c2.4,0,4.2-1,4.8-3.4L9.3,41.5L9.3,41.5z"/>
		<polygon class="st0" points="15.5,47.7 15.5,47.7 13.1,41.5 10.9,41.5 8.9,50.5 10.7,50.5 12.2,44.1 12.3,44.1 14.8,50.5 
			16.8,50.5 18.9,41.5 17,41.5 		"/>
		<polygon class="st0" points="22.4,41.5 20.4,41.5 18.3,50.5 20.3,50.5 		"/>
		<polygon class="st0" points="25.9,48.3 25.9,48.3 25.4,41.5 23.2,41.5 24.4,50.5 26.4,50.5 31.7,41.5 29.6,41.5 		"/>
		<polygon class="st0" points="39.9,41.5 32.8,41.5 30.7,50.5 38.1,50.5 38.4,48.9 33,48.9 33.6,46.5 38.3,46.5 38.7,45 33.9,45 
			34.4,43 39.5,43 		"/>
		<path class="st0" d="M39.4,50.5h2l0.8-3.5h2.1c1.5,0,1.5,0.5,1.2,1.7c-0.2,0.9-0.2,1.4-0.2,1.8h2.2l0.1-0.2
			c-0.4-0.1-0.3-0.5,0-1.8c0.4-1.7,0-2-0.7-2.3c1-0.3,1.8-1.2,2-2.1c0.2-0.8,0.1-2.6-2.5-2.6h-4.9L39.4,50.5L39.4,50.5z M42.6,45.4
			l0.6-2.4h2.6c1.2,0,1.3,0.7,1.2,1.2c-0.2,0.9-0.8,1.2-1.9,1.2H42.6L42.6,45.4z"/>
		<path class="st0" d="M49.1,47.7c-0.2,1.1-0.1,3,3.5,3c0.8,0,3.9-0.2,4.5-2.9c0.4-1.6-0.7-2.1-2-2.4l-2.2-0.6
			c-0.4-0.1-1-0.2-0.8-0.9c0.2-0.8,1.2-1.1,1.9-1.1c1.8,0,1.7,0.9,1.7,1.4h1.9c0.2-1.1-0.1-2.9-3.1-2.9c-3.2,0-4.2,1.8-4.4,2.8
			c-0.5,2,1,2.3,2.5,2.7l1,0.2c1,0.2,1.7,0.4,1.5,1.1c-0.2,0.9-1.3,1.2-2.3,1.2c-1.8,0-1.8-1-1.7-1.5L49.1,47.7L49.1,47.7z"/>
		<polygon class="st0" points="61.6,41.5 59.6,41.5 57.5,50.5 59.6,50.5 		"/>
		<path class="st0" d="M61.2,50.5h4.2c3.2,0,4.7-2.8,5.1-4.7c0.4-1.7,0.3-4.3-3-4.3h-4.3L61.2,50.5L61.2,50.5z M64.9,43h2
			c0.9,0,2.2,0.2,1.6,2.9c-0.3,1.5-1.2,3-2.9,3h-2L64.9,43L64.9,43z"/>
		<path class="st0" d="M73.1,48.6h3.6l0.2,1.9h2.2l-1.4-9h-2.3l-5.5,9H72L73.1,48.6L73.1,48.6z M76.1,43.5L76.1,43.5l0.4,3.6H74
			L76.1,43.5L76.1,43.5z"/>
		<path class="st0" d="M80.1,50.5h4.2c3.2,0,4.7-2.8,5.1-4.7c0.4-1.7,0.3-4.3-3-4.3h-4.3L80.1,50.5L80.1,50.5z M83.8,43h2
			c0.9,0,2.2,0.2,1.6,2.9c-0.3,1.5-1.3,3-2.9,3h-2L83.8,43L83.8,43z"/>
		<polygon class="st0" points="98.9,41.5 91.7,41.5 89.6,50.5 97,50.5 97.4,48.9 92,48.9 92.5,46.5 97.3,46.5 97.7,45 92.9,45 
			93.3,43 98.5,43 		"/>
		<path class="st0" d="M104.6,47.2h2.3c2.6,0,3.6-2.1,3.8-2.9c0.4-1.8-0.5-2.9-2.4-2.9h-4.4l-2.1,9h2L104.6,47.2L104.6,47.2z
			 M104.9,45.7l0.6-2.7h1.6c1.3,0,1.7,0.4,1.5,1.2c-0.1,0.4-0.3,1.4-1.9,1.4L104.9,45.7L104.9,45.7z"/>
		<path class="st0" d="M112,48.6h3.6l0.2,1.9h2.2l-1.4-9h-2.3l-5.5,9h2.1L112,48.6L112,48.6z M115,43.5L115,43.5l0.4,3.6h-2.5
			L115,43.5L115,43.5z"/>
		<path class="st0" d="M128.9,41.5h-2.1l-1.4,6c-0.2,1.1-0.9,1.7-2.3,1.7c-0.9,0-1.6-0.6-1.3-1.8l1.3-5.9h-2.1l-1.4,6
			c-0.2,0.9-0.1,1.6,0.3,2.2c0.7,0.9,1.9,1.1,2.8,1.1c2.4,0,4.2-1,4.8-3.4L128.9,41.5L128.9,41.5z"/>
		<polygon class="st0" points="132.6,41.5 130.6,41.5 128.5,50.5 135.4,50.5 135.8,48.9 130.9,48.9 		"/>
		<polygon class="st0" points="140.5,41.5 138.4,41.5 136.4,50.5 138.4,50.5 		"/>
		<path class="st0" d="M140.1,47.7c-0.3,1.1-0.1,3,3.5,3c0.8,0,3.9-0.2,4.5-2.9c0.4-1.6-0.7-2.1-2-2.4l-2.2-0.6
			c-0.4-0.1-1-0.2-0.8-0.9c0.2-0.8,1.2-1.1,2-1.1c1.8,0,1.7,0.9,1.7,1.4h2c0.2-1.1-0.1-2.9-3.1-2.9c-3.1,0-4.1,1.8-4.4,2.8
			c-0.5,2,1,2.3,2.5,2.7l1,0.2c1,0.2,1.7,0.4,1.5,1.1c-0.2,0.9-1.4,1.2-2.3,1.2c-1.8,0-1.8-1-1.7-1.5L140.1,47.7L140.1,47.7z"/>
		<polygon class="st0" points="154.6,43 157.5,43 157.9,41.5 150,41.5 149.6,43 152.6,43 150.9,50.5 152.9,50.5 		"/>
		<path class="st0" d="M158.2,48.6h3.6l0.2,1.9h2.2l-1.4-9h-2.3l-5.5,9h2.1L158.2,48.6L158.2,48.6z M161.2,43.5L161.2,43.5l0.4,3.6
			h-2.5L161.2,43.5L161.2,43.5z"/>
	</g>
	<g>
		<path class="st0" d="M136.2,5.2l-3.6,7.5h8.9c0.8,0,1.3-0.1,1.9-0.5c0.6-0.4,1-0.7,1.3-1.4l1.2-2.4c0.4-0.7,0.2-1.3-0.2-2
			c-0.5-0.8-1.2-1.2-2.1-1.2H136.2L136.2,5.2z M126.4,0h30.2c1.3,0,2.1,0.6,3,1.6c1.4,1.7,0.9,3.6,0,5.6l-3.1,6.5
			c-0.7,1.5-1.1,2.4-2.3,3.5c-1.6,1.4-3.1,1.8-5.2,1.8h-19.4c-1.1,2.8-2.3,4.3-4.8,5.9c-2.2,1.5-3.8,2.1-6.5,2.1h-4.5L126.4,0
			L126.4,0z"/>
		<path class="st1" d="M136.2,5.2l-3.6,7.5h8.9c0.8,0,1.3-0.1,1.9-0.5c0.6-0.4,1-0.7,1.3-1.4l1.2-2.4c0.4-0.7,0.2-1.3-0.2-2
			c-0.5-0.8-1.2-1.2-2.1-1.2H136.2L136.2,5.2z M126.4,0h30.2c1.3,0,2.1,0.6,3,1.6c1.4,1.7,0.9,3.6,0,5.6l-3.1,6.5
			c-0.7,1.5-1.1,2.4-2.3,3.5c-1.6,1.4-3.1,1.8-5.2,1.8h-19.4c-1.1,2.8-2.3,4.3-4.8,5.9c-2.2,1.5-3.8,2.1-6.5,2.1h-4.5L126.4,0
			L126.4,0z"/>
		<path class="st0" d="M90.9,0.1h11.5l-8.8,19c-1.3,2.8-2.8,4.4-5.4,6.3c-1.6,1.2-6.1,2.5-10,1.7l-7.3-14.2L68,19.1
			c-1.3,2.8-2.8,4.4-5.4,6.3c-1.6,1.2-6.1,2.5-10,1.7l12.8-27h11.5l7.9,13.2L90.9,0.1L90.9,0.1z"/>
		<path class="st0" d="M95.7,27l12.6-27h11.5L111,19c-1.3,2.8-2.8,4.4-5.4,6.3C104,26.5,99.5,27.8,95.7,27L95.7,27z"/>
		<path class="st0" d="M33.5,0h-12l-8,17c-1.2,2.6-1.3,4.8,0.7,7.3C16.6,26.9,21.2,28,26,28h8.7c4.4,0,7.3-0.8,10.6-3.6
			c2.1-1.7,3.1-3,4.2-5.5l8.8-19H46.1l-6.5,13.7C37.8,18,36.8,19,31.1,19c-3.6,0-5-3-3.9-5.3L33.5,0L33.5,0z"/>
	</g>
</g>
</svg>
