<?xml version="1.0" encoding="utf-8"?>
<!-- Generator: Adobe Illustrator 25.2.1, SVG Export Plug-In . SVG Version: 6.00 Build 0)  -->
<svg version="1.1" id="Camada_1" xmlns="http://www.w3.org/2000/svg" xmlns:xlink="http://www.w3.org/1999/xlink" x="0px" y="0px"
	 viewBox="0 0 576.5 571" style="enable-background:new 0 0 576.5 571;" xml:space="preserve">
<style type="text/css">
	.st0{fill:#F2F2F2;}
	.st1{fill:#FFFFFF;}
	.st2{fill:#4B4B4B;}
	.st3{fill:#3F3D56;}
	.st4{fill:#293A67;}
	.st5{fill:#E6E6E6;}
</style>
<path class="st0" d="M206.7,567.1c9.3-9,14.9-23.2,13.4-37c-1.5-13.8-10.6-26.5-22.4-29.4s-25.3,5.2-28.9,18.5
	c-2-25.6-4.3-52.3-16.1-74.1c-10.7-19.8-29.3-33.9-49.5-36.4s-41.4,7-54,25.3c-12.6,18.3-15.6,44.8-6.8,65.8
	c6.5,15.5,18.4,27,31,36.3c40.5,30,89,42.2,136.6,34.3"/>
<path class="st1" d="M31.8,414.2c16.6,15.6,31.9,33,45.6,51.9c21.4,29.6,38.7,62.8,51.3,98.5c0.9,2.6-2.8,3.7-3.7,1.2
	c-8-22.5-18-44.1-29.6-64.4c-18.2-31.7-40.6-60.1-66.2-84.1C27.2,415.5,29.9,412.4,31.8,414.2z"/>
<circle class="st0" cx="203.3" cy="191" r="31"/>
<path class="st0" d="M107.7,84.1h213.6v11.7H135c-46.1,0-83.4,37.3-83.4,83.4c0,0,0,0,0,0V312H28.2c-2.2,0-3.9-1.7-3.9-3.9V167.6
	C24.3,121.5,61.6,84.1,107.7,84.1C107.7,84.1,107.7,84.1,107.7,84.1z"/>
<path class="st2" d="M148.8,564.6V313h52v251.6c0,3.5-2,6.4-4.5,6.4h-43C150.8,571,148.8,568.1,148.8,564.6z"/>
<path class="st3" d="M13.3,308V163.7c0.1-47.8,38.8-86.6,86.7-86.7h220.3v236h-302C15.5,313,13.3,310.8,13.3,308z M318.3,79H99.9
	c-46.7,0.1-84.6,37.9-84.7,84.7V308c0,1.7,1.3,3,3,3h300V79z"/>
<path class="st4" d="M203.3,207c-9.9,0-18-8.1-18-18V60c0-1.7-1.3-3-3-3h-70c-2.8,0-5-2.2-5-5V5c0-2.8,2.2-5,5-5h104
	c2.8,0,5,2.2,5,5v184C221.3,198.9,213.2,207,203.3,207z"/>
<path class="st2" d="M328.3,75L328.3,75c31.4-0.1,56.9,25.3,57,56.8v164.3h112c9.4,0,17,7.6,17,16.9h-243V131.8
	C271.3,100.3,296.9,74.9,328.3,75z"/>
<path class="st1" d="M314.6,168.6l11.8,48.8l230.9-55.9l-11.8-48.8c-0.3-1.2-1.2-2.2-2.4-2.6c-0.4-0.2-0.9-0.2-1.3-0.2L408.3,40.8
	c-1.6-0.8-3.6-0.4-4.7,1.1l-64.3,89.7l-24.2,33.8c-0.1,0.1-0.1,0.3-0.1,0.4C314.5,166.7,314.4,167.6,314.6,168.6z"/>
<path class="st3" d="M315,165.8c0,0.1,0.1,0.2,0.2,0.3c0.1,0.1,0.3,0.1,0.4,0.1c0.1,0,0.2-0.1,0.3-0.2l0.1-0.1l1.3-1.8l22.9-32
	l64.3-89.7c0.8-1.1,2.2-1.4,3.3-0.8l132.4,68.6l1.2,0.6c0,0,0.1,0,0.1,0.1c0.1,0,0.2,0,0.3,0c0.1,0,0.2-0.1,0.3-0.2
	c0.1-0.3,0-0.6-0.2-0.7c0,0,0,0,0,0l-0.2-0.1L408.3,40.8c-1.6-0.8-3.6-0.4-4.7,1.1l-64.3,89.7l-24.2,33.8
	C315,165.5,315,165.7,315,165.8z"/>
<path class="st5" d="M384.4,170.8l5.1,0.6l38.1,4.2l25.3,2.8l1.5,0.2l31.6-24.6l1.2-0.9l7.5-5.8l26.5-20.7l0.2-1.5l9.4-85.1
	c0.3-2.4-1.5-4.6-3.9-4.9L400.9,21c-2.4-0.3-4.6,1.5-4.9,3.9l-6.7,60l-3.7,33.3l-3.3,29.8l-1.5,13.8l-0.4,4
	C380.2,168.3,381.9,170.5,384.4,170.8z"/>
<path class="st1" d="M418.9,96.2l54.5,6l19.3,2.1c3.6,0.4,6.8-2.2,7.2-5.8s-2.2-6.8-5.8-7.2l0,0l-24-2.7l-49.8-5.5
	c-3.6-0.4-6.8,2.2-7.2,5.8C412.8,92.6,415.4,95.8,418.9,96.2z"/>
<path class="st1" d="M415.8,120.3c0.1,0,0.3,0.1,0.4,0.1l63.3,7l10.6,1.2c3.6,0.4,6.8-2.2,7.2-5.8c0.4-3.6-2.2-6.8-5.8-7.2l0,0
	l-15.3-1.7l-50.1-5.6l-8.4-0.9c-3.6-0.4-6.8,2.2-7.2,5.8C410.1,116.6,412.4,119.7,415.8,120.3L415.8,120.3z"/>
<path class="st1" d="M408.7,141.7c1.1,1.7,2.9,2.9,4.9,3.1l25.9,2.9l46.2,5.1l0,0l1.5,0.2l7.5-5.8c0-0.4,0-0.9,0-1.3
	c-0.3-3.1-2.7-5.5-5.8-5.8l-6.4-0.7l-25.5-2.8l-18.3-2l-23.7-2.6c-3.6-0.4-6.8,2.2-7.2,5.8C407.6,139,407.9,140.5,408.7,141.7
	L408.7,141.7z"/>
<path class="st1" d="M445.1,66.7l13.6,1.5l6,0.7l9.1,1c3.6,0.4,6.8-2.2,7.2-5.8c0.4-3.6-2.2-6.8-5.8-7.2l0,0l-28.6-3.2
	c-3.6-0.4-6.8,2.2-7.2,5.8C438.9,63.1,441.5,66.3,445.1,66.7L445.1,66.7L445.1,66.7z"/>
<path class="st4" d="M334.2,102.9l16.5,68.3l27.6,5.2l25.5,4.9l27.4,5.2l8.8,1.7c1,0.2,2.1-0.1,2.9-0.7l7-5.5l4.4-3.5l31.6-24.6
	L465.9,71c-0.2-0.8-0.6-1.6-1.2-2.2c-1.1-1.1-2.6-1.5-4.1-1.1L337.5,97.6C335.1,98.1,333.6,100.5,334.2,102.9z"/>
<path class="st1" d="M372.1,157.3c0.9,3.5,4.4,5.7,7.9,4.8l72.2-17.5c3.5-0.9,5.7-4.4,4.8-7.9c0-0.1,0-0.2-0.1-0.2
	c-1-3.4-4.4-5.4-7.8-4.6l-72.2,17.5C373.4,150.2,371.3,153.8,372.1,157.3z"/>
<path class="st1" d="M378.3,176.5l25.5,4.9l54.1-13.1c3.5-0.8,5.7-4.4,4.8-7.9c-0.8-3.5-4.4-5.7-7.9-4.8L382.7,173
	c-1.5,0.4-2.8,1.3-3.7,2.5C378.7,175.8,378.5,176.2,378.3,176.5z"/>
<path class="st1" d="M431.3,186.6l8.8,1.7c1,0.2,2.1-0.1,2.9-0.7l7-5.5L431.3,186.6z"/>
<path class="st1" d="M386.7,120.6c0.9,3.5,4.4,5.7,7.9,4.8l28-6.8c3.5-0.9,5.7-4.4,4.8-7.9c-0.2-0.9-0.6-1.8-1.2-2.5
	c-1.6-2-4.2-2.9-6.7-2.3l-28,6.8C388,113.6,385.8,117.1,386.7,120.6L386.7,120.6z"/>
<path class="st1" d="M403.9,181.4l27.4,5.2l8.8,1.7c1,0.2,2.1-0.1,2.9-0.7l7-5.5l-2.5,0.6l-5.2,4.1c-0.6,0.5-1.4,0.6-2.1,0.5
	l-6.5-1.2l-27.4-5.2L403.9,181.4z M485.7,152.8l0.3,1.1l1.2-0.9L485.7,152.8z M403.9,181.4l27.4,5.2l8.8,1.7c1,0.2,2.1-0.1,2.9-0.7
	l7-5.5l-2.5,0.6l-5.2,4.1c-0.6,0.5-1.4,0.6-2.1,0.5l-6.5-1.2l-27.4-5.2L403.9,181.4z M403.9,181.4l27.4,5.2l8.8,1.7
	c1,0.2,2.1-0.1,2.9-0.7l7-5.5l-2.5,0.6l-5.2,4.1c-0.6,0.5-1.4,0.6-2.1,0.5l-6.5-1.2l-27.4-5.2L403.9,181.4z M314.6,168.6l30.9,127.7
	c0.5,2,2.5,3.2,4.4,2.7l223.8-54.2c2-0.5,3.2-2.5,2.7-4.4l-30.9-127.7c-0.3-1.2-1.2-2.2-2.4-2.6c-0.4-0.2-0.9-0.2-1.3-0.2
	c-0.5,0-1,0.2-1.5,0.4c-0.2,0.1-0.4,0.2-0.6,0.4L521.3,125l-26.7,20.8l-8.9,7l0,0l0,0l-32.8,25.6l-5.4,4.2l-5.2,4.1
	c-0.6,0.5-1.4,0.6-2.1,0.5l-6.5-1.2l-27.4-5.2l-27.4-5.2l-60.1-11.4c-0.5-0.1-1-0.1-1.5,0c-0.7,0.2-1.3,0.5-1.8,1
	c-0.2,0.2-0.4,0.4-0.5,0.7C314.5,166.7,314.4,167.6,314.6,168.6L314.6,168.6z M403.9,181.4l27.4,5.2l8.8,1.7c1,0.2,2.1-0.1,2.9-0.7
	l7-5.5l-2.5,0.6l-5.2,4.1c-0.6,0.5-1.4,0.6-2.1,0.5l-6.5-1.2l-27.4-5.2L403.9,181.4z M403.9,181.4l27.4,5.2l8.8,1.7
	c1,0.2,2.1-0.1,2.9-0.7l7-5.5l-2.5,0.6l-5.2,4.1c-0.6,0.5-1.4,0.6-2.1,0.5l-6.5-1.2l-27.4-5.2L403.9,181.4z M403.9,181.4l27.4,5.2
	l8.8,1.7c1,0.2,2.1-0.1,2.9-0.7l7-5.5l-2.5,0.6l-5.2,4.1c-0.6,0.5-1.4,0.6-2.1,0.5l-6.5-1.2l-27.4-5.2L403.9,181.4z"/>
<path class="st3" d="M403.9,181.4l27.4,5.2l8.8,1.7c1,0.2,2.1-0.1,2.9-0.7l7-5.5l-2.5,0.6l-5.2,4.1c-0.6,0.5-1.4,0.6-2.1,0.5
	l-6.5-1.2l-27.4-5.2L403.9,181.4z M485.7,152.8l0.3,1.1l1.2-0.9L485.7,152.8z M403.9,181.4l27.4,5.2l8.8,1.7c1,0.2,2.1-0.1,2.9-0.7
	l7-5.5l-2.5,0.6l-5.2,4.1c-0.6,0.5-1.4,0.6-2.1,0.5l-6.5-1.2l-27.4-5.2L403.9,181.4z M403.9,181.4l27.4,5.2l8.8,1.7
	c1,0.2,2.1-0.1,2.9-0.7l7-5.5l-2.5,0.6l-5.2,4.1c-0.6,0.5-1.4,0.6-2.1,0.5l-6.5-1.2l-27.4-5.2L403.9,181.4z M316,165.9l0.1,0.1
	c0,0,0.1-0.1,0.1-0.1c0.6-0.6,1.5-0.9,2.4-0.8l59.7,11.4l25.5,4.9l27.4,5.2l8.8,1.7c1,0.2,2.1-0.1,2.9-0.7l7-5.5l-2.5,0.6l-5.2,4.1
	c-0.6,0.5-1.4,0.6-2.1,0.5l-6.5-1.2l-27.4-5.2l-27.4-5.2l-60.1-11.4c-0.5-0.1-1-0.1-1.5,0L316,165.9z M314.6,168.6l30.9,127.7
	c0.5,2,2.5,3.2,4.4,2.7l223.8-54.2c2-0.5,3.2-2.5,2.7-4.4l-30.9-127.7c-0.3-1.2-1.2-2.2-2.4-2.6c-0.4-0.2-0.9-0.2-1.3-0.2
	c-0.5,0-1,0.2-1.5,0.4c-0.2,0.1-0.4,0.2-0.6,0.4L521.3,125l-26.7,20.8l-8.9,7l0,0l0,0l-32.8,25.6l-5.4,4.2l-5.2,4.1
	c-0.6,0.5-1.4,0.6-2.1,0.5l-6.5-1.2l-27.4-5.2l-27.4-5.2l-60.1-11.4c-0.5-0.1-1-0.1-1.5,0c-0.7,0.2-1.3,0.5-1.8,1
	c-0.2,0.2-0.4,0.4-0.5,0.7C314.5,166.7,314.4,167.6,314.6,168.6L314.6,168.6z M315.6,168.3c-0.2-0.8,0-1.6,0.5-2.2
	c0,0,0.1-0.1,0.1-0.1c0,0,0.1-0.1,0.1-0.1c0.6-0.6,1.5-0.9,2.4-0.8l59.7,11.4l25.5,4.9l27.4,5.2l8.8,1.7c1,0.2,2.1-0.1,2.9-0.7
	l7-5.5l4.4-3.5l31.5-24.6l1.2-0.9l7.4-5.8l26.5-20.7l19.2-15c0.3-0.2,0.6-0.4,1-0.5c0.1,0,0.2,0,0.3-0.1c0.1,0,0.2,0,0.3,0
	c0.3,0,0.6,0,0.9,0.1c0.8,0.3,1.5,1,1.7,1.9l30.9,127.7c0.3,1.4-0.5,2.8-1.9,3.2c0,0,0,0,0,0L349.7,298c-1.4,0.3-2.8-0.5-3.2-1.9
	L315.6,168.3z M403.9,181.4l27.4,5.2l8.8,1.7c1,0.2,2.1-0.1,2.9-0.7l7-5.5l-2.5,0.6l-5.2,4.1c-0.6,0.5-1.4,0.6-2.1,0.5l-6.5-1.2
	l-27.4-5.2L403.9,181.4z M403.9,181.4l27.4,5.2l8.8,1.7c1,0.2,2.1-0.1,2.9-0.7l7-5.5l-2.5,0.6l-5.2,4.1c-0.6,0.5-1.4,0.6-2.1,0.5
	l-6.5-1.2l-27.4-5.2L403.9,181.4z M403.9,181.4l27.4,5.2l8.8,1.7c1,0.2,2.1-0.1,2.9-0.7l7-5.5l-2.5,0.6l-5.2,4.1
	c-0.6,0.5-1.4,0.6-2.1,0.5l-6.5-1.2l-27.4-5.2L403.9,181.4z"/>
<path class="st4" d="M515.4,219.7c-1-4.4,1.6-8.7,6-9.8l28.2-6.8c4.4-1,8.7,1.7,9.8,6c1,4.3-1.6,8.7-6,9.8l-28.2,6.8
	C520.8,226.7,516.4,224.1,515.4,219.7z"/>
<circle class="st1" cx="203.3" cy="189" r="7"/>
</svg>
