<?xml version="1.0" encoding="utf-8"?>
<!-- Generator: Adobe Illustrator 25.2.1, SVG Export Plug-In . SVG Version: 6.00 Build 0)  -->
<svg version="1.1" id="Objeto_Inteligente_de_Vetor_Imagem"
	 xmlns="http://www.w3.org/2000/svg" xmlns:xlink="http://www.w3.org/1999/xlink" x="0px" y="0px" viewBox="0 0 248.6 92"
	 style="enable-background:new 0 0 248.6 92;" xml:space="preserve">
<style type="text/css">
	.st0{fill:#5E86E2;}
	.st1{enable-background:new    ;}
	.st2{fill:#A4BAE7;}
</style>
<path class="st0" d="M71.2,50.8c-0.9,1.9-2.1,3.6-3.5,5c-0.9,0.9-2,1.7-3.1,2.3c-1,0.6-2.3,0.2-2.9-0.7c-0.7-1-0.4-2.4,0.6-3l0,0
	c1-0.7,2-1.4,2.9-2.4c1.3-1.4,2.3-3.2,2.8-5.1c0.2-1.1-0.5-2.3-1.6-2.5c-0.1,0-0.2,0-0.4,0H46.4c-1,0-1.8,0.6-2,1.5
	c-0.1,0.5-0.1,1,0.1,1.5c0.6,1.8,1.5,3.4,2.8,4.8c1.7,1.8,3.9,3,6.3,3.5c1.2,0.2,2,1.4,1.8,2.6c-0.2,1.1-1.2,1.9-2.3,1.8
	c-1.3-0.2-2.6-0.6-3.8-1.2c-5.9-2.7-9.7-8.6-9.8-15.1c0-0.9,0.1-1.9,0.2-2.8c0.1-0.7,0.7-1.3,1.5-1.2h22.9c0.1,0,0.2,0,0.2-0.1
	c0.7-0.4,0.6-2.5,0-4c-1.1-2.6-4.2-3.5-5.1-3.8c-0.7-0.2-1.5-0.3-2.2-0.4c-2.8-0.2-5.5,0.5-7.8,2.1c-0.9,0.5-2,0.5-2.8-0.1
	c-0.9-0.8-1-2.3-0.1-3.2c0-0.1,0.1-0.1,0.1-0.1c1.5-1.1,3.2-1.9,5-2.5c1.7-0.5,3.4-0.7,5.2-0.6c4.1,0.1,8.1,1.8,11.1,4.7
	c1.5,1.5,2.7,3.2,3.6,5.1c0.8,1.7,1.2,3.5,1.4,5.4C72.9,45.3,72.4,48.2,71.2,50.8z"/>
<path class="st0" d="M0,42.6c0.3-4.3,2.2-8.4,5.5-11.3c3.3-3,7.7-4.5,12.1-4.2c2.8,0.1,5.4,1,7.8,2.5c4.2,2.6,7.1,6.9,7.7,11.8
	c1.3,9.1-5,17.5-14.1,18.8c-0.1,0-0.2,0-0.2,0c-3.4,0.4-6.8-0.2-9.9-1.7c-0.4-0.2-0.8-0.4-1.1-0.6c-0.7-0.4-1.5-0.4-2.2,0
	c-0.7,0.4-1.1,1.1-1.1,1.8c0,2.7,0,5.4,0,8.1c0,4.2,0,8.4,0,12.6c0.1,1.2-0.8,2.3-2,2.5c0,0-0.6,0-0.7,0C0.9,82.7,0.2,82,0.1,81
	c0-0.8-0.1-1.5-0.1-2.3c0-4,0-8.1,0-12.1c0.1-4.9,0-18.7,0-18.8c0-1.4,0-2.8,0-4.2C0,43.4,0,42.7,0,42.6z M28.8,43.7
	c0-6.7-5.5-12.2-12.2-12.2S4.4,37,4.4,43.7s5.5,12.2,12.2,12.2S28.8,50.4,28.8,43.7z"/>
<path class="st0" d="M151.7,42.6c-0.1,0.6-0.5,1.1-1.1,1.4c-0.3,0.1-0.5,0.2-0.8,0.2H137c-0.9,0-1.8-0.7-1.9-1.6
	c-0.2-0.9,0.3-1.8,1.2-2.2c0.4-0.1,0.7-0.2,1.1-0.2c1.9,0,3.9,0,5.9,0c0.5,0,1-0.1,1.4-0.3c0.8-0.4,1.3-1.3,1-2.1
	c-0.2-0.7-0.6-1.4-1.1-2c-2-2.5-5-4.2-8.2-4.5c-6.7-0.7-12.7,4.2-13.4,10.8c-0.2,2.1,0.1,4.1,0.9,6c1.1,2.7,3.2,4.9,5.9,6.2
	c2.3,1.1,4.9,1.5,7.4,1c0.7-0.2,1.5,0,2,0.6c0.1,0.1,0.2,0.3,0.3,0.5c0.2,0.6,0.2,1.4,0,2c-0.2,0.7-0.7,1.2-1.4,1.3
	c-1.5,0.3-3,0.3-4.5,0.2c-1.7-0.1-3.4-0.6-5-1.2c-5.7-2.4-9.6-7.8-10.1-14c-0.5-6.7,3-13,8.9-16.1c1.8-1,3.9-1.6,5.9-1.7
	c2.9-0.3,5.8,0.1,8.5,1.2c1.8,0.7,3.4,1.7,4.8,2.9c2.5,2.2,4.1,5.1,4.7,8.3c0.1,0.6,0.2,1.2,0.2,1.9l0.1,0.3L151.7,42.6z"/>
<path class="st0" d="M0,43.5"/>
<path class="st0" d="M95.5,60c-9.2,0-16.6-7.5-16.6-16.6c0-8.3,6.2-15.4,14.5-16.4c3.4-0.5,6.9,0.2,10,1.8c0.7,0.4,1.4,0.8,2.1,1.3
	c1,0.7,1.1,2.1,0.4,3.1c0,0,0,0,0,0.1c-0.7,0.9-2,1.1-3,0.4c-2-1.5-4.4-2.3-6.8-2.3c-2-0.1-4.1,0.3-5.9,1.3
	c-3.7,1.8-6.2,5.3-6.6,9.4c-0.5,3.2,0.4,6.5,2.5,9c1.9,2.5,4.7,4.1,7.7,4.5c2.3,0.4,4.7,0.1,6.8-1c0.8-0.4,1.5-0.8,2.2-1.3
	c1-0.7,2.4-0.5,3.1,0.5s0.5,2.4-0.5,3.1l0,0c-2.4,1.7-5.2,2.8-8.1,3.1H95.5z"/>
<path class="st0" d="M149.4,55.7c1.2,0,2.2,0.9,2.2,2.1v0.1c0,1.2-1,2.2-2.2,2.2s-2.2-1-2.2-2.2S148.2,55.7,149.4,55.7L149.4,55.7z"
	/>
<g class="st1">
	<path class="st2" d="M155.9,48.1c0-3.6,0.8-6.4,2.4-8.5c1.6-2.1,3.8-3.2,6.5-3.2c2.2,0,4.1,0.8,5.5,2.5V27.3h6.1v32.4H171l-0.3-2.4
		c-1.5,1.9-3.5,2.8-5.9,2.8c-2.7,0-4.8-1.1-6.5-3.2S155.9,51.9,155.9,48.1z M162,48.5c0,2.1,0.4,3.8,1.1,4.9
		c0.7,1.1,1.8,1.7,3.2,1.7c1.9,0,3.2-0.8,4-2.4v-9c-0.8-1.6-2.1-2.4-3.9-2.4C163.5,41.4,162,43.8,162,48.5z"/>
	<path class="st2" d="M193.6,53.4c0-0.7-0.4-1.3-1.1-1.8s-1.9-0.8-3.6-1.1c-5.4-1.1-8.1-3.4-8.1-6.9c0-2,0.8-3.7,2.5-5.1
		c1.7-1.4,3.9-2,6.6-2c2.9,0,5.2,0.7,6.9,2c1.7,1.4,2.6,3.1,2.6,5.3h-6.1c0-0.9-0.3-1.6-0.8-2.2c-0.6-0.6-1.4-0.9-2.6-0.9
		c-1,0-1.8,0.2-2.4,0.7c-0.6,0.5-0.8,1.1-0.8,1.8c0,0.7,0.3,1.2,1,1.6c0.6,0.4,1.7,0.8,3.2,1.1s2.8,0.6,3.8,1
		c3.2,1.2,4.8,3.2,4.8,6.1c0,2.1-0.9,3.8-2.7,5.1c-1.8,1.3-4.1,1.9-6.9,1.9c-1.9,0-3.6-0.3-5.1-1s-2.6-1.6-3.5-2.8
		c-0.8-1.2-1.3-2.5-1.3-3.8h5.8c0.1,1.1,0.5,1.9,1.2,2.5c0.7,0.6,1.7,0.9,3,0.9c1.2,0,2-0.2,2.6-0.7
		C193.3,54.7,193.6,54.1,193.6,53.4z"/>
	<path class="st2" d="M202.6,48.1c0-3.5,0.8-6.3,2.5-8.5c1.7-2.2,3.9-3.2,6.7-3.2c2.5,0,4.5,0.9,5.8,2.6l0.3-2.2h5.5v22.1
		c0,2-0.5,3.7-1.4,5.2c-0.9,1.5-2.2,2.6-3.8,3.4s-3.6,1.2-5.8,1.2c-1.7,0-3.3-0.3-4.9-1c-1.6-0.7-2.8-1.5-3.6-2.6l2.7-3.7
		c1.5,1.7,3.4,2.6,5.5,2.6c1.6,0,2.9-0.4,3.8-1.3c0.9-0.9,1.3-2.1,1.3-3.7v-1.2c-1.4,1.6-3.3,2.4-5.5,2.4c-2.7,0-5-1.1-6.7-3.2
		s-2.5-5-2.5-8.5L202.6,48.1L202.6,48.1z M208.6,48.5c0,2.1,0.4,3.7,1.2,4.9c0.8,1.2,2,1.8,3.4,1.8c1.9,0,3.2-0.7,4-2.1v-9.6
		c-0.8-1.4-2.1-2.1-3.9-2.1c-1.5,0-2.6,0.6-3.4,1.8C209.1,44.4,208.6,46.2,208.6,48.5z"/>
	<path class="st2" d="M233.7,36.9l0.2,2.6c1.6-2,3.8-3.1,6.6-3.1c2.4,0,4.2,0.7,5.4,2.1c1.2,1.4,1.8,3.5,1.8,6.4v14.7h-6.1V45.1
		c0-1.3-0.3-2.2-0.8-2.8c-0.6-0.6-1.5-0.9-2.8-0.9c-1.7,0-3,0.7-3.9,2.2v16.1H228V36.9H233.7z"/>
</g>
</svg>
