<?xml version="1.0" encoding="utf-8"?>
<!-- Generator: Adobe Illustrator 25.2.1, SVG Export Plug-In . SVG Version: 6.00 Build 0)  -->
<svg version="1.1" id="Layer_1" xmlns="http://www.w3.org/2000/svg" xmlns:xlink="http://www.w3.org/1999/xlink" x="0px" y="0px"
	 viewBox="0 0 48.4 50.7" style="enable-background:new 0 0 48.4 50.7;" xml:space="preserve">
<style type="text/css">
	.st0{fill:#FFFFFF;}
	.st1{fill:#D2DEF6;}
</style>
<g>
	<g>
		<path class="st0" d="M32.4,8.3c-2-2-3.7-3.8-5.7-5.4c-1.8-1.5-3.5-1.2-5.3,0.3c-0.2,0.2-0.5,0.4-0.7,0.7C14.7,9.9,8.7,15.9,2.6,22
			c-0.3,0.3-0.6,0.5-0.8,0.9c-1.3,1.7-1.3,3.6,0,5.2c0.3,0.4,0.8,0.8,1.2,1.2c5.2,5.2,10.3,10.4,15.5,15.5c0.9,0.9,1.8,1.8,2.7,2.7
			c2.1,2,4.2,2,6.2,0c0.3-0.3,0.7-0.7,1-1c4.3-4.3,8.6-8.5,12.9-12.8c1.8-1.8,3.6-3.7,5.4-5.6c1.4-1.6,1.5-3.4,0.2-5.2
			c-0.2-0.3-0.5-0.6-0.8-0.9c-3.2-3.2-6.3-6.4-9.5-9.5c-0.3-0.3-0.7-0.5-1.3-0.8c-2.6,3-5.1,5.8-7.5,8.6c0.5,1.8,1,3.3,1.2,4.8
			c0.5,3.5,1,7,1.4,10.5c0.3,2.8,0.3,2.9-2.4,4c-0.4,0.1-0.7,0.3-1.1,0.4c-1.3,0.5-1.7,0.5-2.4-0.7c-0.8-1.3-1.4-2.8-1.9-4.3
			c-0.3-1-0.8-1.7-1.8-2c-2.9-0.9-4.9-2.7-5.6-5.7c-0.4,4.1,2.4,5.9,5.1,7.5c0,3,0,5.8,0,8.8c-4.8-4.8-9.4-9.4-14-14
			c-0.8-0.8-0.8-1.6-0.4-2.6c1-2.6,2.3-5,4.3-7c1.3-1.4,2.7-2.6,4.7-3.4c0.1,0.3,0.2,0.7,0.3,1.1c1.4-3,2.3-5.8,5-7.4
			c1,1.1,0.9,2.3,0.9,3.5c0,0.8,0.1,1.6,1,1.9c0.9,0.3,1.6,0.2,2.4-0.5c0.8-0.8,1.7-1.4,2.5-2.1C28.7,11.6,30.4,10.1,32.4,8.3z
			 M41.9,2.4c-0.1-0.1-0.3-0.3-0.4-0.4c-0.3,0.1-0.6,0.2-0.8,0.4c-5,4.3-9.9,8.6-14.9,13c-0.4,0.3-0.7,0.6-1,1
			c-0.2,0.2-0.4,0.7-0.3,0.8c0.5,0.7,1,1.4,1.6,1.9c0.6,0.5,1.3,0.2,1.9-0.4c0.3-0.3,0.6-0.6,0.8-0.9c4-4.6,8-9.2,12-13.9
			C41.2,3.6,41.5,3,41.9,2.4z"/>
		<path d="M32.4,8.3c-2,1.8-3.7,3.4-5.4,4.9c-0.8,0.7-1.7,1.4-2.5,2.1c-0.7,0.7-1.4,0.9-2.4,0.5c-1-0.3-1-1.1-1-1.9
			c-0.1-1.2,0.1-2.4-0.9-3.5c-2.7,1.6-3.6,4.4-5,7.4c-0.1-0.4-0.2-0.7-0.3-1.1c-2,0.8-3.4,2-4.7,3.4c-2,2-3.3,4.4-4.3,7
			c-0.4,1-0.4,1.8,0.4,2.6c4.6,4.6,9.2,9.2,14,14c0-3,0-5.8,0-8.8c-2.7-1.6-5.5-3.4-5.1-7.5c0.8,3,2.7,4.9,5.6,5.7
			c1,0.3,1.4,1,1.8,2c0.5,1.5,1.1,2.9,1.9,4.3c0.7,1.1,1.1,1.1,2.4,0.7c0.4-0.1,0.7-0.3,1.1-0.4c2.7-1.1,2.8-1.2,2.4-4
			c-0.4-3.5-0.9-7-1.4-10.5c-0.2-1.5-0.8-3-1.2-4.8c2.4-2.7,4.9-5.6,7.5-8.6C35.9,12,43,18.8,46.2,22c0.3,0.3,0.6,0.6,0.8,0.9
			c1.2,1.7,1.2,3.6-0.2,5.2c-1.7,1.9-3.5,3.8-5.4,5.6C37,38,32.7,42.2,28.4,46.5c-0.3,0.3-0.7,0.7-1,1c-2.1,1.9-4.1,1.9-6.2,0
			c-0.9-0.9-1.8-1.8-2.7-2.7C13.3,39.6,8.1,34.4,3,29.2c-0.4-0.4-0.8-0.8-1.2-1.2c-1.3-1.6-1.3-3.5,0-5.2C2,22.5,2.3,22.3,2.6,22
			C8.7,15.9,14.7,9.9,20.8,3.8c0.2-0.2,0.4-0.5,0.7-0.7c1.8-1.6,3.5-1.8,5.3-0.3C28.7,4.4,30.4,6.3,32.4,8.3z"/>
		<path d="M41.9,2.4c-0.4,0.6-0.7,1.1-1.1,1.6c-4,4.6-8,9.2-12,13.9c-0.3,0.3-0.5,0.6-0.8,0.9c-0.5,0.6-1.2,0.9-1.9,0.4
			c-0.6-0.5-1.1-1.2-1.6-1.9c-0.1-0.2,0.1-0.6,0.3-0.8c0.3-0.4,0.6-0.7,1-1c5-4.3,9.9-8.6,14.9-13c0.2-0.2,0.5-0.3,0.8-0.4
			C41.6,2.2,41.7,2.3,41.9,2.4z"/>
	</g>
	<g>
		<path class="st1" d="M32.4,8.3c-2-2-3.7-3.8-5.7-5.4c-1.8-1.5-3.5-1.2-5.3,0.3c-0.2,0.2-0.5,0.4-0.7,0.7C14.7,9.9,8.7,15.9,2.6,22
			c-0.3,0.3-0.6,0.5-0.8,0.9c-1.3,1.7-1.3,3.6,0,5.2c0.3,0.4,0.8,0.8,1.2,1.2c5.2,5.2,10.3,10.4,15.5,15.5c0.9,0.9,1.8,1.8,2.7,2.7
			c2.1,2,4.2,2,6.2,0c0.3-0.3,0.7-0.7,1-1c4.3-4.3,8.6-8.5,12.9-12.8c1.8-1.8,3.6-3.7,5.4-5.6c1.4-1.6,1.5-3.4,0.2-5.2
			c-0.2-0.3-0.5-0.6-0.8-0.9c-3.2-3.2-6.3-6.4-9.5-9.5c-0.3-0.3-0.7-0.5-1.3-0.8c-2.6,3-5.1,5.8-7.5,8.6c0.5,1.8,1,3.3,1.2,4.8
			c0.5,3.5,1,7,1.4,10.5c0.3,2.8,0.3,2.9-2.4,4c-0.4,0.1-0.7,0.3-1.1,0.4c-1.3,0.5-1.7,0.5-2.4-0.7c-0.8-1.3-1.4-2.8-1.9-4.3
			c-0.3-1-0.8-1.7-1.8-2c-2.9-0.9-4.9-2.7-5.6-5.7c-0.4,4.1,2.4,5.9,5.1,7.5c0,3,0,5.8,0,8.8c-4.8-4.8-9.4-9.4-14-14
			c-0.8-0.8-0.8-1.6-0.4-2.6c1-2.6,2.3-5,4.3-7c1.3-1.4,2.7-2.6,4.7-3.4c0.1,0.3,0.2,0.7,0.3,1.1c1.4-3,2.3-5.8,5-7.4
			c1,1.1,0.9,2.3,0.9,3.5c0,0.8,0.1,1.6,1,1.9c0.9,0.3,1.6,0.2,2.4-0.5c0.8-0.8,1.7-1.4,2.5-2.1C28.7,11.6,30.4,10.1,32.4,8.3z
			 M41.9,2.4c-0.1-0.1-0.3-0.3-0.4-0.4c-0.3,0.1-0.6,0.2-0.8,0.4c-5,4.3-9.9,8.6-14.9,13c-0.4,0.3-0.7,0.6-1,1
			c-0.2,0.2-0.4,0.7-0.3,0.8c0.5,0.7,1,1.4,1.6,1.9c0.6,0.5,1.3,0.2,1.9-0.4c0.3-0.3,0.6-0.6,0.8-0.9c4-4.6,8-9.2,12-13.9
			C41.2,3.6,41.5,3,41.9,2.4z"/>
		<path class="st1" d="M32.4,8.3c-2,1.8-3.7,3.4-5.4,4.9c-0.8,0.7-1.7,1.4-2.5,2.1c-0.7,0.7-1.4,0.9-2.4,0.5c-1-0.3-1-1.1-1-1.9
			c-0.1-1.2,0.1-2.4-0.9-3.5c-2.7,1.6-3.6,4.4-5,7.4c-0.1-0.4-0.2-0.7-0.3-1.1c-2,0.8-3.4,2-4.7,3.4c-2,2-3.3,4.4-4.3,7
			c-0.4,1-0.4,1.8,0.4,2.6c4.6,4.6,9.2,9.2,14,14c0-3,0-5.8,0-8.8c-2.7-1.6-5.5-3.4-5.1-7.5c0.8,3,2.7,4.9,5.6,5.7
			c1,0.3,1.4,1,1.8,2c0.5,1.5,1.1,2.9,1.9,4.3c0.7,1.1,1.1,1.1,2.4,0.7c0.4-0.1,0.7-0.3,1.1-0.4c2.7-1.1,2.8-1.2,2.4-4
			c-0.4-3.5-0.9-7-1.4-10.5c-0.2-1.5-0.8-3-1.2-4.8c2.4-2.7,4.9-5.6,7.5-8.6C35.9,12,43,18.8,46.2,22c0.3,0.3,0.6,0.6,0.8,0.9
			c1.2,1.7,1.2,3.6-0.2,5.2c-1.7,1.9-3.5,3.8-5.4,5.6C37,38,32.7,42.2,28.4,46.5c-0.3,0.3-0.7,0.7-1,1c-2.1,1.9-4.1,1.9-6.2,0
			c-0.9-0.9-1.8-1.8-2.7-2.7C13.3,39.6,8.1,34.4,3,29.2c-0.4-0.4-0.8-0.8-1.2-1.2c-1.3-1.6-1.3-3.5,0-5.2C2,22.5,2.3,22.3,2.6,22
			C8.7,15.9,14.7,9.9,20.8,3.8c0.2-0.2,0.4-0.5,0.7-0.7c1.8-1.6,3.5-1.8,5.3-0.3C28.7,4.4,30.4,6.3,32.4,8.3z"/>
		<path class="st1" d="M41.9,2.4c-0.4,0.6-0.7,1.1-1.1,1.6c-4,4.6-8,9.2-12,13.9c-0.3,0.3-0.5,0.6-0.8,0.9c-0.5,0.6-1.2,0.9-1.9,0.4
			c-0.6-0.5-1.1-1.2-1.6-1.9c-0.1-0.2,0.1-0.6,0.3-0.8c0.3-0.4,0.6-0.7,1-1c5-4.3,9.9-8.6,14.9-13c0.2-0.2,0.5-0.3,0.8-0.4
			C41.6,2.2,41.7,2.3,41.9,2.4z"/>
	</g>
</g>
</svg>
